<svg xmlns="http://www.w3.org/2000/svg" fill-rule="evenodd" clip-rule="evenodd" image-rendering="optimizeQuality" shape-rendering="geometricPrecision" text-rendering="geometricPrecision" viewBox="0 0 1707 1707"><defs><linearGradient id="a" x1="272.642" x2="1434.02" y1="853.331" y2="853.331" gradientUnits="userSpaceOnUse"><stop class="stopColor336666 svgShape" offset="0" stop-color="#334866"/><stop class="stopColor003333 svgShape" offset="1" stop-color="#1f2937"/></linearGradient></defs><path fill="url(#a)" d="M853 1501l0 0c-7,0 -15,-4 -19,-11l-257 -398c-188,-102 -304,-297 -304,-511 0,-320 260,-581 580,-581 321,0 581,261 581,581 0,214 -117,409 -305,511l-257 398c-4,7 -11,11 -19,11zm0 206c-242,0 -432,-91 -432,-208 0,-86 103,-160 264,-191l127 197c9,14 25,23 41,23 17,0 33,-9 42,-23l127 -197c160,31 264,105 264,191 0,117 -190,208 -433,208zm0 -863c-145,0 -263,-118 -263,-263 0,-145 118,-263 263,-263 145,0 263,118 263,263 0,145 -118,263 -263,263z"/></svg>