<svg xmlns="http://www.w3.org/2000/svg" data-name="Layer 1" viewBox="0 0 1000 1000"><path d="M900,866.76H100a16,16,0,0,1-16-16V149.24a16,16,0,0,1,16-16H900a16,16,0,0,1,16,16V850.76A16,16,0,0,1,900,866.76Zm-784-32H884V165.24H116Z"/><path d="M900 267.33H100a16 16 0 010-32H900a16 16 0 110 32zM696.47 216.28h-7.41a16 16 0 010-32h7.41a16 16 0 010 32zM759.41 216.28H752a16 16 0 010-32h7.41a16 16 0 010 32zM822.35 216.28h-7.41a16 16 0 010-32h7.41a16 16 0 010 32zM358.09 740.64H298.85a16 16 0 01-15.88-18l2.62-21a154.25 154.25 0 01-33.27-13.8l-13 16.74a16 16 0 01-23.94 1.49l-41.89-41.9A16 16 0 01175 640.22l16.73-13a154.12 154.12 0 01-13.8-33.28l-21 2.62a16 16 0 01-18-15.87V521.42a16 16 0 0118-15.87l21 2.62a154.12 154.12 0 0113.8-33.28l-16.73-13a16 16 0 01-1.49-23.94L215.35 396a16 16 0 0123.94 1.49l13 16.74a154.25 154.25 0 0133.27-13.8l-2.62-21a16 16 0 0115.88-18h59.24a16 16 0 0115.88 18l-2.62 21a154 154 0 0133.27 13.8l13-16.74A16 16 0 01441.59 396l41.89 41.9A16 16 0 01482 461.87l-16.74 13a154.12 154.12 0 0113.8 33.28l21-2.62a16 16 0 0118 15.87v59.25a16 16 0 01-18 15.87l-21-2.62a154.12 154.12 0 01-13.8 33.28l16.74 13a16 16 0 011.48 23.94l-41.89 41.9a16 16 0 01-23.94-1.49l-13-16.74a154 154 0 01-33.27 13.8l2.62 21a16 16 0 01-15.88 18zm-41.12-32h23l-2.16-17.34a16 16 0 0113-17.73 123 123 0 0048.45-20.09A16 16 0 01421 656.81l10.74 13.81L448 654.35 434.23 643.6a16 16 0 01-3.32-21.74A123.14 123.14 0 00451 573.41a16 16 0 0117.72-13l17.35 2.16v-23l-17.35 2.16a16 16 0 01-17.72-13 123.14 123.14 0 00-20.09-48.45 16 16 0 013.32-21.74L448 447.74l-16.27-16.27L421 445.28a16 16 0 01-21.74 3.33 123 123 0 00-48.45-20.09 16 16 0 01-13-17.73L340 393.45H317l2.16 17.34a16 16 0 01-13 17.73 123 123 0 00-48.46 20.09 16 16 0 01-21.74-3.33l-10.74-13.81L208.9 447.74l13.81 10.75A16 16 0 01226 480.23a123.14 123.14 0 00-20.09 48.45 16 16 0 01-17.72 13l-17.35-2.16v23l17.35-2.16a16 16 0 0117.72 13A123.14 123.14 0 00226 621.86a16 16 0 01-3.32 21.74L208.9 654.35l16.27 16.27 10.74-13.81a16 16 0 0121.74-3.33 123 123 0 0048.46 20.09 16 16 0 0113 17.73z"/><path d="M328.47 652.23A101.19 101.19 0 11429.66 551 101.31 101.31 0 01328.47 652.23zm0-170.37A69.19 69.19 0 10397.66 551 69.26 69.26 0 00328.47 481.86zM698.8 567c-42 0-81.81-10.4-112-29.29-32.48-20.34-50.36-48.18-50.36-78.38s17.88-58 50.36-78.38c30.15-18.88 69.91-29.29 112-29.29s81.81 10.41 112 29.29c32.48 20.35 50.37 48.19 50.37 78.38s-17.89 58-50.37 78.38C780.61 556.64 740.85 567 698.8 567zm0-183.34c-70.64 0-130.32 34.66-130.32 75.67S628.16 535 698.8 535s130.33-34.65 130.33-75.67S769.44 383.7 698.8 383.7z"/><path d="M698.8,658.71c-57.24,0-109-19.05-138.5-51-15.59-16.87-23.83-36.48-23.83-56.7a16,16,0,0,1,32,0c0,12.2,5.16,24,15.34,35,23.18,25.09,67.24,40.68,115,40.68s91.81-15.59,115-40.68c10.18-11,15.34-22.79,15.34-35a16,16,0,0,1,32,0c0,20.22-8.24,39.83-23.83,56.7C807.81,639.66,756,658.71,698.8,658.71Z"/><path d="M698.8,750.39c-42,0-81.81-10.41-112-29.3-32.48-20.34-50.37-48.18-50.37-78.38a16,16,0,0,1,32,0c0,41,59.69,75.68,130.33,75.68s130.33-34.66,130.33-75.68a16,16,0,0,1,32,0c0,30.2-17.89,58-50.37,78.38C780.61,740,740.85,750.39,698.8,750.39Z"/><path d="M845.13 658.72a16 16 0 01-16-16V459.37a16 16 0 0132 0V642.72A16 16 0 01845.13 658.72zM552.48 658.72a16 16 0 01-16-16V459.37a16 16 0 0132 0V642.72A16 16 0 01552.48 658.72z"/></svg>