<svg xmlns="http://www.w3.org/2000/svg" fill="none" viewBox="0 0 24 24"><path fill="#e5e7eb" fill-rule="evenodd" d="M3 3a3 3 0 0 0-3 3v12.5A2.5 2.5 0 0 0 2.5 21h19a2.5 2.5 0 0 0 2.5-2.5V6a3 3 0 0 0-3-3H3Zm-.346 2.061A.998.998 0 0 1 3 5h18c.122 0 .238.022.346.061l-8.713 7.129a1 1 0 0 1-1.266 0L2.654 5.06ZM2 7.111v9.844l6.169-4.798L2 7.11ZM21.371 19H2.63l7.127-5.544.344.282a3 3 0 0 0 3.8 0l.344-.282L21.37 19ZM22 16.955V7.11l-6.169 5.047L22 16.955Z" class="color242c3c svgShape" clip-rule="evenodd"/></svg>