<svg xmlns="http://www.w3.org/2000/svg" data-name="Layer 1" viewBox="0 0 128 128"><path fill="#1f2937" d="M64 32A32.02585 32.02585 0 0192.25543 49h4.458a35.98022 35.98022 0 00-65.42688 0h4.458A32.02585 32.02585 0 0164 32zM64 96A32.02585 32.02585 0 0135.74457 79h-4.458a35.98022 35.98022 0 0065.42688 0h-4.458A32.02585 32.02585 0 0164 96z" class="color000000 svgShape"/><path fill="#1f2937" d="M44.20117 83.79883A1.99979 1.99979 0 0047.0293 80.9707a24.029 24.029 0 010-33.94141 1.99979 1.99979 0 00-2.82812-2.82812A27.89982 27.89982 0 0038.247 53H28.70117L19.249 45.43848A1.99906 1.99906 0 0018 45H11.65a6 6 0 100 4h5.64886L26.751 56.56152A1.99906 1.99906 0 0028 57h8.88989a28.09187 28.09187 0 00-.80023 5H20V60a2.0001 2.0001 0 00-2-2H10a2.0001 2.0001 0 00-2 2v8a2.0001 2.0001 0 002 2h8a2.0001 2.0001 0 002-2V66H36.08966a28.09733 28.09733 0 00.80017 5H28a1.99906 1.99906 0 00-1.249.43848L17.29883 79H11.65a6 6 0 100 4H18a1.99906 1.99906 0 001.249-.43848L28.70117 75h9.54565A27.8956 27.8956 0 0044.20117 83.79883zM122 75a6.00478 6.00478 0 00-5.65 4h-5.64886L101.249 71.43848A1.99906 1.99906 0 00100 71H91.11011a28.09187 28.09187 0 00.80023-5H108v2a2.0001 2.0001 0 002 2h8a2.0001 2.0001 0 002-2V60a2.0001 2.0001 0 00-2-2h-8a2.0001 2.0001 0 00-2 2v2H91.91034a28.09733 28.09733 0 00-.80017-5H100a1.99906 1.99906 0 001.249-.43848L110.70117 49H116.35a6 6 0 100-4H110a1.99906 1.99906 0 00-1.249.43848L99.29883 53H89.75317a27.8956 27.8956 0 00-5.95435-8.79883A1.99979 1.99979 0 0080.9707 47.0293a24.029 24.029 0 010 33.94141 1.99979 1.99979 0 102.82813 2.82813A27.89982 27.89982 0 0089.753 75h9.54584l9.45215 7.56152A1.99906 1.99906 0 00110 83h6.35A5.99715 5.99715 0 10122 75z" class="color000000 svgShape"/><path fill="#1f2937" d="M44,64A20,20,0,1,0,64,44,20.0226,20.0226,0,0,0,44,64Zm30,0A10,10,0,1,1,64,54,10.01146,10.01146,0,0,1,74,64Z" class="color000000 svgShape"/></svg>