<svg xmlns="http://www.w3.org/2000/svg" viewBox="0 0 32 32"><path d="m26.05,29.42h-14.07c-1.65,0-3-1.35-3-3v-7c0-.55.45-1,1-1s1,.45,1,1v7c0,.55.45,1,1,1h14.07c.55,0,1-.45,1-1V6.42c0-.55-.45-1-1-1h-14.07c-.55,0-1,.45-1,1v7c0,.55-.45,1-1,1s-1-.45-1-1v-7c0-1.65,1.35-3,3-3h14.07c1.65,0,3,1.35,3,3v20c0,1.65-1.35,3-3,3Z"/><path d="m17.04,16.46s0-.07,0-.1c0-.08-.02-.17-.05-.25-.01-.03-.02-.07-.04-.1-.05-.11-.11-.21-.2-.3l-2.98-2.98c-.39-.39-1.02-.39-1.41,0s-.39,1.02,0,1.41l1.27,1.27H4.01c-.55,0-1,.45-1,1s.45,1,1,1h9.62s-1.28,1.29-1.28,1.29c-.39.39-.39,1.02,0,1.41.2.2.45.29.71.29s.51-.1.71-.29l2.99-2.99s.01-.02.02-.03c.08-.09.15-.18.2-.29,0,0,0,0,0,0,0,0,0-.02,0-.03.04-.1.06-.21.06-.31Z"/></svg>