<svg xmlns="http://www.w3.org/2000/svg" viewBox="0 0 66 66"><path fill="none" stroke="#2c3451" stroke-linecap="round" stroke-linejoin="round" stroke-miterlimit="10" stroke-width="1.425" d="M52.6 42.1c-.6.5-1.1 1-1.8 1.5l4.1 4.6H5.5c-1.9 0-3.5-1.6-3.5-3.5V11.5C2 9.6 3.5 8 5.5 8h49.2c1.9 0 3.5 1.6 3.5 3.5V44L54 40.3c-.4.6-.9 1.2-1.4 1.8z"/><path fill="none" stroke="#2c3451" stroke-linecap="round" stroke-linejoin="round" stroke-miterlimit="10" stroke-width="1.425" d="M6.6 12.6v30.9h31.8c-.6-.4-1.2-.9-1.8-1.5-4.4-4.4-4.4-11.6 0-16s11.6-4.4 16 0c.3.3.6.7.9 1V12.6H6.6zM23.6 48.2h12.9v5.3H23.6zM41.4 58h0c0-2.5-2-4.5-4.5-4.5H23.1c-2.5 0-4.5 2-4.5 4.5h22.8z"/><path fill="none" stroke="#2c3451" stroke-linecap="round" stroke-linejoin="round" stroke-miterlimit="10" stroke-width="1.425" d="M11.9 31.9h3.4V36h-3.4zM18.2 29.2h3.4V36h-3.4zM24.4 26.6h3.4V36h-3.4zM26.3 21.6l-12.9 5.2M24.3 20.8l2 .8-.7 2M63.1 52.7c-1.2 1.2-3.2 1.1-4.3-.1l-8.1-9c.6-.4 1.2-.9 1.8-1.5.6-.5 1-1.2 1.5-1.8l9 8c1.3 1.2 1.3 3.2.1 4.4z"/><path fill="none" stroke="#2c3451" stroke-linecap="round" stroke-linejoin="round" stroke-miterlimit="10" stroke-width="1.425" d="M52.6 26.1c4.4 4.4 4.4 11.6 0 16s-11.6 4.4-16 0-4.4-11.6 0-16 11.6-4.4 16 0z"/><path fill="none" stroke="#2c3451" stroke-linecap="round" stroke-linejoin="round" stroke-miterlimit="10" stroke-width="1.425" d="M44.6 41.8c-2.1 0-4-.8-5.5-2.3-3-3-3-7.9 0-10.9 1.5-1.5 3.4-2.3 5.5-2.3s4 .8 5.5 2.3c1.5 1.5 2.3 3.4 2.3 5.5s-.8 4-2.3 5.5c-1.5 1.4-3.4 2.2-5.5 2.2z"/><path fill="none" stroke="#2c3451" stroke-linecap="round" stroke-linejoin="round" stroke-miterlimit="10" stroke-width="1.425" d="M48.7 34.1c0 2.3-1.8 4.1-4.1 4.1s-4.1-1.8-4.1-4.1c0-.8.2-1.5.6-2.1.3.4.7.6 1.2.6.8 0 1.5-.7 1.5-1.5 0-.4-.1-.7-.3-.9.3-.1.7-.1 1.1-.1 2.2-.1 4.1 1.8 4.1 4z"/></svg>