<svg xmlns="http://www.w3.org/2000/svg" viewBox="0 0 64 64"><path fill-rule="evenodd" d="M56,31H53V16a1,1,0,0,0-.293-.707l-12-12A1,1,0,0,0,40,3H12a1,1,0,0,0-1,1V31H8a1,1,0,0,0-1,1V52a1,1,0,0,0,1,1h3v7a1,1,0,0,0,1,1H52a1,1,0,0,0,1-1V53h3a1,1,0,0,0,1-1V32A1,1,0,0,0,56,31ZM13,5H39.586L51,16.414V31H13ZM51,59H13V53H51Zm4-8H9V33H55Z"/><path fill-rule="evenodd" d="M44 15H20a1 1 0 0 0 0 2H44a1 1 0 0 0 0-2zM44 19H20a1 1 0 0 0 0 2H44a1 1 0 0 0 0-2zM44 23H20a1 1 0 0 0 0 2H44a1 1 0 0 0 0-2zM44 27H20a1 1 0 0 0 0 2H44a1 1 0 0 0 0-2zM22 49h3a1 1 0 0 0 0-2H22a2 2 0 0 1-2-2V39a2 2 0 0 1 2-2h3a1 1 0 0 0 0-2H22a4 4 0 0 0-4 4v6A4 4 0 0 0 22 49zM33.5 47h-3a.5.5 0 0 1-.5-.5 1 1 0 0 0-2 0A2.5 2.5 0 0 0 30.5 49h3A2.5 2.5 0 0 0 36 46.5v-3A2.5 2.5 0 0 0 33.5 41h-3a.5.5 0 0 1-.5-.5v-3a.5.5 0 0 1 .5-.5h3a.5.5 0 0 1 .5.5 1 1 0 0 0 2 0A2.5 2.5 0 0 0 33.5 35h-3A2.5 2.5 0 0 0 28 37.5v3A2.5 2.5 0 0 0 30.5 43h3a.5.5 0 0 1 .5.5v3A.5.5 0 0 1 33.5 47zM43.5 47h-3a.5.5 0 0 1-.5-.5 1 1 0 0 0-2 0A2.5 2.5 0 0 0 40.5 49h3A2.5 2.5 0 0 0 46 46.5v-3A2.5 2.5 0 0 0 43.5 41h-3a.5.5 0 0 1-.5-.5v-3a.5.5 0 0 1 .5-.5h3a.5.5 0 0 1 .5.5 1 1 0 0 0 2 0A2.5 2.5 0 0 0 43.5 35h-3A2.5 2.5 0 0 0 38 37.5v3A2.5 2.5 0 0 0 40.5 43h3a.5.5 0 0 1 .5.5v3A.5.5 0 0 1 43.5 47z"/></svg>