<svg xmlns="http://www.w3.org/2000/svg" data-name="Backend Development" viewBox="0 0 64 64"><path d="M46 56c-.55 0-1 .45-1 1 0 1.65-1.35 3-3 3H7c-1.65 0-3-1.35-3-3V14h41v19c0 .55.45 1 1 1s1-.45 1-1V7c0-2.76-2.24-5-5-5H7c-2.76 0-5 2.24-5 5v50c0 2.76 2.24 5 5 5h35c2.76 0 5-2.24 5-5 0-.55-.45-1-1-1zM4 7c0-1.65 1.35-3 3-3h35c1.65 0 3 1.35 3 3v5H4v-5zM54.71 41.29c-.39-.39-1.02-.39-1.41 0s-.39 1.02 0 1.41l2.29 2.29-2.29 2.29c-.39.39-.39 1.02 0 1.41.2.2.45.29.71.29s.51-.1.71-.29l3-3c.39-.39.39-1.02 0-1.41l-3-3z"/><path d="M44.71 41.29c-.39-.39-1.02-.39-1.41 0l-3 3c-.39.39-.39 1.02 0 1.41l3 3c.2.2.45.29.71.29s.51-.1.71-.29c.39-.39.39-1.02 0-1.41l-2.29-2.29 2.29-2.29c.39-.39.39-1.02 0-1.41zM51.45 40.11c-.49-.25-1.09-.05-1.34.45l-4 8c-.25.49-.05 1.09.45 1.34.14.07.3.11.45.11.37 0 .72-.2.9-.55l4-8c.25-.49.05-1.09-.45-1.34z"/><path d="m59,36h-20c-1.65,0-3,1.35-3,3v12c0,1.65,1.35,3,3,3h20c1.65,0,3-1.35,3-3v-12c0-1.65-1.35-3-3-3Zm1,15c0,.55-.45,1-1,1h-20c-.55,0-1-.45-1-1v-12c0-.55.45-1,1-1h20c.55,0,1,.45,1,1v12Z"/><circle cx="8.5" cy="8" r="1.5"/><circle cx="13.5" cy="8" r="1.5"/><circle cx="18.5" cy="8" r="1.5"/><circle cx="9.5" cy="21" r="1.5"/><path d="m14,22h10c.55,0,1-.45,1-1s-.45-1-1-1h-10c-.55,0-1,.45-1,1s.45,1,1,1Z"/><circle cx="9.5" cy="26" r="1.5"/><path d="M14 27h14c.55 0 1-.45 1-1s-.45-1-1-1h-14c-.55 0-1 .45-1 1s.45 1 1 1zM37 26c0-.55-.45-1-1-1h-4c-.55 0-1 .45-1 1s.45 1 1 1h4c.55 0 1-.45 1-1z"/><circle cx="9.5" cy="41" r="1.5"/><path d="M14 42h9c.55 0 1-.45 1-1s-.45-1-1-1h-9c-.55 0-1 .45-1 1s.45 1 1 1zM32 41c0-.55-.45-1-1-1h-4c-.55 0-1 .45-1 1s.45 1 1 1h4c.55 0 1-.45 1-1z"/><circle cx="9.5" cy="46" r="1.5"/><path d="m29,46c0-.55-.45-1-1-1h-14c-.55,0-1,.45-1,1s.45,1,1,1h14c.55,0,1-.45,1-1Z"/><circle cx="9.5" cy="51" r="1.5"/><path d="m14,50c-.55,0-1,.45-1,1s.45,1,1,1h8c.55,0,1-.45,1-1s-.45-1-1-1h-8Z"/><circle cx="14.5" cy="31" r="1.5"/><path d="m33,31c0-.55-.45-1-1-1h-13c-.55,0-1,.45-1,1s.45,1,1,1h13c.55,0,1-.45,1-1Z"/><circle cx="14.5" cy="36" r="1.5"/><path d="m28,37c.55,0,1-.45,1-1s-.45-1-1-1h-9c-.55,0-1,.45-1,1s.45,1,1,1h9Z"/></svg>