<svg xmlns="http://www.w3.org/2000/svg" fill="none" viewBox="0 0 40 40"><path fill="#712CF9" fill-rule="evenodd" d="M6.64097 10.433C6.56043 8.14996 8.35589 6 10.8542 6H29.1483C31.6468 6 33.4418 8.15038 33.3613 10.4329C33.3026 12.0973 33.3854 14.1613 33.8942 15.7912C34.1633 16.6526 34.5053 17.4855 34.925 18.1009C35.3525 18.7278 35.7482 18.9718 36.0939 19.0044C36.6075 19.0529 37 19.4841 37 20C37 20.5159 36.6075 20.9471 36.0939 20.9956C35.7482 21.0282 35.3525 21.2722 34.925 21.8991C34.5053 22.5145 34.1633 23.3474 33.8943 24.2087C33.3854 25.839 33.3026 27.9027 33.3613 29.5671C33.4418 31.8499 31.6467 34 29.1483 34H10.8545C8.3559 34 6.56042 31.8498 6.64097 29.567C6.69962 27.9027 6.61683 25.839 6.10799 24.2087C5.83925 23.3478 5.49678 22.5149 5.07658 21.8995C4.64851 21.2726 4.25214 21.0282 3.9061 20.9956C3.39247 20.9471 3 20.5159 3 20C3 19.4841 3.39247 19.0529 3.9061 19.0044C4.25214 18.9718 4.64851 18.7274 5.07658 18.1005C5.49678 17.485 5.83926 16.6521 6.10799 15.7912C6.61684 14.161 6.69962 12.0973 6.64097 10.433ZM10.8542 8C9.58662 8 8.59554 9.11 8.63973 10.3624C8.70077 12.0947 8.62807 14.4299 8.01715 16.3872C7.72432 17.3252 7.31115 18.3746 6.72828 19.2282C6.54566 19.4957 6.33487 19.7601 6.09363 20C6.33487 20.2399 6.54566 20.5043 6.72828 20.7718C7.31115 21.6254 7.72432 22.6747 8.01714 23.6128C8.62806 25.57 8.70077 27.9053 8.63973 29.6375C8.59555 30.8897 9.58661 32 10.8545 32H29.1483C30.4158 32 31.4067 30.8901 31.3625 29.6376C31.3015 27.9053 31.3742 25.5701 31.9851 23.6128C32.2779 22.6753 32.6905 21.6258 33.2726 20.7722C33.4551 20.5046 33.6658 20.2401 33.907 20C33.6658 19.7599 33.4551 19.4954 33.2726 19.2278C32.6905 18.3742 32.2779 17.3249 31.9851 16.3873C31.3742 14.4303 31.3015 12.0947 31.3625 10.3625C31.4067 9.11015 30.4157 8 29.1483 8H10.8542Z" clip-rule="evenodd"/><path fill="#712CF9" fill-rule="evenodd" d="M16 13C15.4477 13 15 13.4477 15 14V26C15 26.5523 15.4477 27 16 27H22C22.5253 27 23.0454 26.8965 23.5307 26.6955C24.016 26.4945 24.457 26.1999 24.8284 25.8284C25.1999 25.457 25.4945 25.016 25.6955 24.5307C25.8965 24.0454 26 23.5253 26 23C26 22.4747 25.8965 21.9546 25.6955 21.4693C25.4945 20.984 25.1999 20.543 24.8284 20.1716C24.598 19.9411 24.3407 19.7402 24.0627 19.5729C24.3252 19.2604 24.5388 18.909 24.6955 18.5307C24.8965 18.0454 25 17.5253 25 17C25 16.4747 24.8965 15.9546 24.6955 15.4693C24.4945 14.984 24.1999 14.543 23.8284 14.1716C23.457 13.8001 23.016 13.5055 22.5307 13.3045C22.0454 13.1035 21.5253 13 21 13H16ZM21 15H17V19H21C21.2626 19 21.5227 18.9483 21.7654 18.8478C22.008 18.7472 22.2285 18.5999 22.4142 18.4142C22.5999 18.2285 22.7472 18.008 22.8478 17.7654C22.9483 17.5227 23 17.2626 23 17C23 16.7374 22.9483 16.4773 22.8478 16.2346C22.7472 15.992 22.5999 15.7715 22.4142 15.5858C22.2285 15.4001 22.008 15.2528 21.7654 15.1522C21.5227 15.0517 21.2626 15 21 15ZM22 21H17V25H22C22.2626 25 22.5227 24.9483 22.7654 24.8478C23.008 24.7472 23.2285 24.5999 23.4142 24.4142C23.5999 24.2285 23.7472 24.008 23.8478 23.7654C23.9483 23.5227 24 23.2626 24 23C24 22.7374 23.9483 22.4773 23.8478 22.2346C23.7472 21.992 23.5999 21.7715 23.4142 21.5858C23.2285 21.4001 23.008 21.2528 22.7654 21.1522C22.5227 21.0517 22.2626 21 22 21Z" clip-rule="evenodd"/></svg>