<svg xmlns="http://www.w3.org/2000/svg" viewBox="0 0 64 64"><g fill="#222" data-name="Language"><path d="M32.15 20.162H16.064a1.5 1.5 0 1 1 0-3h16.084a1.5 1.5 0 0 1 0 3zm-2.575 15.681c-6.833 0-10.787-4.218-11.133-11.877a1.5 1.5 0 1 1 2.996-.135c.27 5.98 3.008 9.012 8.137 9.012a1.5 1.5 0 0 1 0 3z"/><path d="M18.639 35.843a1.5 1.5 0 0 1 0-3c2.74 0 4.73-.805 6.082-2.463 3.212-3.939 1.739-11.34 1.724-11.415a1.5 1.5 0 0 1 2.938-.608c.074.36 1.78 8.858-2.33 13.91-1.93 2.373-4.762 3.576-8.414 3.576zm5.468-15.68a1.5 1.5 0 0 1-1.5-1.5v-4.92a1.5 1.5 0 0 1 3 0v4.92a1.5 1.5 0 0 1-1.5 1.5zM36.66 51.756a1.502 1.502 0 0 1-1.446-1.903l5.637-20.216a1.5 1.5 0 0 1 2.891.806L38.105 50.66a1.502 1.502 0 0 1-1.445 1.097z"/><path d="M47.935 51.757a1.502 1.502 0 0 1-1.445-1.097l-5.638-20.216a1.5 1.5 0 0 1 2.89-.806l5.639 20.216a1.502 1.502 0 0 1-1.446 1.903zm-5.638-3.6H38.07a1.5 1.5 0 0 1 0-3h4.227a1.5 1.5 0 1 1 0 3z"/><path d="M44.318 58.768H19.682a12.514 12.514 0 0 1-12.5-12.5V17.732a12.514 12.514 0 0 1 12.5-12.5h24.636a12.514 12.514 0 0 1 12.5 12.5v28.536a12.514 12.514 0 0 1-12.5 12.5ZM19.682 8.232a9.51 9.51 0 0 0-9.5 9.5v28.536a9.51 9.51 0 0 0 9.5 9.5h24.636a9.51 9.51 0 0 0 9.5-9.5V17.732a9.51 9.51 0 0 0-9.5-9.5Z"/><path d="M45.935 25.046a1.5 1.5 0 0 1-1.5-1.5v-4.803a3.504 3.504 0 0 0-3.5-3.5h-4.843a1.5 1.5 0 0 1 0-3h4.844a6.508 6.508 0 0 1 6.5 6.5v1.025l.591-.628a1.5 1.5 0 0 1 2.184 2.058l-3.184 3.377a1.5 1.5 0 0 1-1.092.471zm-18.027 26.71h-4.844a6.508 6.508 0 0 1-6.5-6.5v-1.024l-.591.628a1.5 1.5 0 0 1-2.184-2.058l3.184-3.377a1.5 1.5 0 0 1 2.592 1.029v4.803a3.504 3.504 0 0 0 3.5 3.5h4.843a1.5 1.5 0 0 1 0 3z"/></g></svg>